<?xml version="1.0" standalone="no"?>
<!DOCTYPE svg PUBLIC "-//W3C//DTD SVG 20010904//EN"
 "http://www.w3.org/TR/2001/REC-SVG-20010904/DTD/svg10.dtd">
<svg version="1.0" xmlns="http://www.w3.org/2000/svg"
 width="675.000000pt" height="900.000000pt" viewBox="0 0 675.000000 900.000000"
 preserveAspectRatio="xMidYMid meet">

<g transform="translate(0.000000,900.000000) scale(0.100000,-0.100000)"
fill="#000000" stroke="none">
<path d="M160 8363 c0 -4 8 -21 18 -38 10 -16 26 -51 36 -77 10 -27 22 -48 28
-48 13 0 1 48 -20 80 -9 14 -22 38 -28 54 -10 28 -34 48 -34 29z"/>
<path d="M267 8119 c12 -15 111 -211 184 -364 50 -106 47 -101 58 -89 5 5 -38
104 -103 234 -81 164 -116 226 -131 229 -15 3 -17 0 -8 -10z"/>
<path d="M6570 7990 c0 -5 5 -10 10 -10 6 0 10 5 10 10 0 6 -4 10 -10 10 -5 0
-10 -4 -10 -10z"/>
<path d="M6443 7721 c-7 -11 -25 -21 -40 -23 -33 -4 -38 -32 -7 -36 23 -3 74
39 74 63 0 21 -13 19 -27 -4z"/>
<path d="M5178 7693 c6 -2 18 -2 25 0 6 3 1 5 -13 5 -14 0 -19 -2 -12 -5z"/>
<path d="M5248 7693 c7 -3 16 -2 19 1 4 3 -2 6 -13 5 -11 0 -14 -3 -6 -6z"/>
<path d="M5488 7693 c6 -2 18 -2 25 0 6 3 1 5 -13 5 -14 0 -19 -2 -12 -5z"/>
<path d="M5548 7693 c7 -3 16 -2 19 1 4 3 -2 6 -13 5 -11 0 -14 -3 -6 -6z"/>
<path d="M5720 7690 c0 -5 9 -10 20 -10 11 0 20 5 20 10 0 6 -9 10 -20 10 -11
0 -20 -4 -20 -10z"/>
<path d="M1016 7682 c-3 -3 -6 -9 -6 -14 0 -12 40 -6 43 6 2 10 -29 17 -37 8z"/>
<path d="M1290 7680 l-65 -6 65 -4 c36 -3 90 -3 120 0 l55 6 -55 4 c-30 3 -84
3 -120 0z"/>
<path d="M610 7670 c-58 -4 -79 -8 -67 -14 10 -5 75 -6 145 -3 70 4 148 7 175
7 26 0 47 5 47 10 0 11 -121 11 -300 0z"/>
<path d="M935 7670 c-3 -5 3 -10 15 -10 12 0 18 5 15 10 -3 6 -10 10 -15 10
-5 0 -12 -4 -15 -10z"/>
<path d="M3736 7418 c-10 -14 -16 -44 -16 -79 0 -31 -3 -83 -6 -115 l-6 -59
-93 0 c-52 0 -96 -2 -98 -5 -3 -3 -7 -46 -9 -95 l-3 -90 -75 0 -75 0 -3 83 -3
84 -1099 -8 c-814 -5 -1100 -4 -1100 5 0 6 4 11 9 11 6 0 3 24 -6 53 -20 67
-25 75 -34 51 -6 -14 -8 -11 -8 16 -1 38 -29 121 -45 132 -6 4 -23 8 -38 8
-47 0 -60 -34 -85 -218 -3 -23 -10 -45 -15 -48 -6 -4 -8 1 -4 13 5 14 1 19
-14 19 -21 0 -26 -11 -10 -21 27 -17 0 -23 -102 -24 -62 -1 -113 -3 -114 -4
-2 -1 -7 -56 -14 -122 -6 -66 -15 -142 -20 -170 -8 -44 -8 -41 -5 30 3 44 2
73 -2 65 -3 -8 -17 -29 -30 -46 -12 -17 -23 -40 -23 -52 0 -25 -19 -39 -30
-22 -6 9 -11 7 -19 -8 -17 -32 -13 -42 14 -42 l25 0 -18 -32 c-24 -42 -48
-273 -38 -354 4 -33 7 -103 6 -156 -2 -93 -1 -98 19 -98 21 0 21 -4 19 -120
-3 -107 -5 -120 -20 -120 -22 0 -23 -23 -3 -43 9 -9 15 -41 18 -88 3 -73 3
-73 6 21 3 106 17 222 20 160 0 -19 -4 -109 -9 -199 l-10 -164 27 -43 c16 -24
31 -44 34 -44 4 0 9 -10 13 -22 3 -13 16 -35 28 -50 21 -25 31 -28 114 -34 72
-5 92 -10 100 -24 5 -10 19 -39 31 -64 12 -25 26 -46 31 -46 9 0 31 -50 53
-120 25 -79 24 -7 -1 96 -18 73 -21 106 -15 159 6 58 10 67 31 75 13 5 24 14
24 20 0 16 110 12 151 -7 21 -9 40 -24 42 -32 3 -10 5 -6 6 7 1 15 9 26 21 29
11 3 20 10 20 15 0 15 140 4 170 -13 14 -8 28 -18 33 -24 5 -7 10 -7 15 0 22
31 76 47 131 42 30 -3 57 -11 59 -17 2 -5 12 -10 22 -10 10 0 21 -3 23 -7 3
-5 1 -64 -3 -133 -6 -99 -14 -144 -39 -219 -17 -52 -35 -98 -41 -101 -13 -8
-22 -90 -10 -90 5 0 11 6 14 13 4 9 8 9 11 1 7 -13 45 -7 45 7 0 5 -8 9 -17
10 -13 0 -11 3 7 12 14 6 31 18 39 26 13 11 16 11 21 -5 6 -16 7 -15 13 5 4
15 10 20 18 15 9 -5 10 -2 6 9 -7 19 -15 66 -22 127 -2 25 -9 69 -15 99 -11
57 -13 173 -4 206 3 11 17 26 32 33 30 14 143 16 158 3 22 -21 70 -22 94 -1
28 24 101 27 144 5 15 -8 35 -15 42 -15 9 0 14 -12 15 -32 0 -28 1 -30 9 -12
19 48 143 71 207 39 27 -13 32 -22 38 -71 8 -63 0 -169 -21 -294 -16 -100 -18
-133 -4 -125 5 3 6 13 3 23 -4 13 -2 13 10 -3 11 -15 12 -22 4 -28 -7 -5 -3
-6 10 -2 12 3 24 1 28 -5 3 -5 11 -10 17 -10 7 0 6 6 -2 15 -10 12 -10 15 4
15 9 0 16 -5 16 -11 0 -5 5 -7 10 -4 6 4 10 -9 10 -33 l0 -38 58 1 57 2 6 49
c3 27 7 43 7 35 1 -8 5 -11 9 -8 3 4 12 2 20 -4 10 -9 17 -8 28 1 8 7 22 9 31
6 19 -7 16 24 -18 174 -25 107 -27 105 -48 -50 l-11 -85 -75 0 c-67 0 -75 2
-79 20 -36 171 -55 291 -55 349 l0 71 40 18 c53 22 117 22 163 -2 35 -18 41
-18 72 -5 41 17 129 18 173 3 25 -8 33 -18 38 -45 l6 -34 88 0 c48 0 128 3
178 6 l92 7 0 483 c0 276 4 484 9 484 9 0 26 -65 22 -87 -1 -6 8 -27 19 -45
13 -22 20 -50 20 -86 0 -29 5 -63 11 -75 9 -16 9 -22 0 -25 -13 -4 -15 -52 -2
-52 5 0 12 8 15 17 8 19 21 9 31 -24 5 -17 2 -23 -9 -23 -18 0 -21 -15 -6 -25
5 -3 9 -23 8 -44 0 -21 7 -49 17 -64 17 -26 17 -27 -4 -27 -25 0 -27 -20 -5
-62 12 -24 14 -36 5 -55 -15 -33 -14 -40 10 -64 18 -18 23 -38 28 -110 3 -48
8 -90 11 -92 3 -3 84 -7 180 -8 l175 -3 3 36 c4 42 11 49 69 67 64 21 167 -4
179 -43 3 -10 9 -15 13 -10 32 46 133 66 191 38 35 -17 40 -24 46 -63 6 -40 1
-150 -11 -226 -3 -16 -6 -62 -7 -101 -2 -56 1 -74 15 -88 12 -12 17 -14 17 -4
1 12 19 -31 42 -99 l11 -33 85 0 84 0 -4 59 c-2 33 -1 58 4 55 4 -3 8 -17 8
-32 1 -15 10 -38 20 -51 18 -20 25 -23 58 -16 20 4 53 8 72 9 37 1 47 18 49
84 1 46 21 40 21 -7 0 -58 15 -66 107 -52 53 8 79 8 81 1 9 -27 22 -5 22 39 0
27 3 56 6 65 9 24 24 8 25 -27 0 -28 2 -29 10 -12 7 16 8 14 5 -12 -8 -48 12
-58 115 -58 73 0 89 2 90 15 0 8 2 40 5 72 6 55 5 56 -23 62 -15 4 -43 2 -62
-4 -19 -5 -37 -8 -39 -5 -8 8 -34 140 -41 210 l-7 70 -13 -44 c-7 -24 -20 -87
-29 -140 l-17 -96 -52 3 c-28 2 -60 -1 -71 -7 -19 -10 -22 -5 -41 78 -12 49
-21 108 -21 132 0 74 -17 30 -34 -89 -9 -63 -18 -118 -21 -123 -3 -4 -18 -6
-34 -3 -15 3 -44 1 -64 -4 -34 -10 -37 -9 -42 11 -3 12 -14 58 -25 102 -11 44
-20 90 -20 103 0 12 -4 22 -9 22 -4 0 -11 -44 -15 -97 -4 -54 -9 -114 -12
-133 l-6 -35 -70 0 -71 0 -14 55 c-8 30 -16 62 -19 70 -32 117 -44 177 -44
238 0 67 2 73 24 82 13 5 27 13 30 19 4 5 26 13 51 16 49 8 121 -17 128 -44 3
-10 5 -7 6 7 0 12 9 25 19 28 9 3 24 9 33 14 29 15 136 23 143 11 4 -6 16 -11
27 -11 12 0 19 -7 19 -20 0 -11 5 -20 10 -20 6 0 10 9 10 20 0 13 7 20 18 20
10 0 22 4 28 10 5 5 35 12 66 16 48 6 62 3 92 -15 l35 -22 40 21 c83 42 198
17 212 -47 l7 -28 1 27 c2 54 135 90 208 58 24 -11 33 -24 41 -54 l10 -41 1
43 c1 31 5 42 16 42 9 0 27 7 40 16 37 24 124 24 156 -1 21 -16 28 -33 37 -90
6 -38 9 -81 7 -95 -10 -64 -12 -110 -6 -110 4 0 14 13 24 29 12 21 22 28 37
24 22 -6 29 21 8 31 -7 3 -2 3 12 0 14 -4 28 -12 32 -18 4 -6 9 -8 10 -6 20
26 38 64 47 98 10 37 15 42 49 47 53 9 82 22 89 42 10 28 45 63 56 56 6 -4 8
0 4 11 -4 11 1 29 13 47 22 30 23 15 -15 444 -10 121 -14 238 -6 214 5 -14 12
-84 16 -155 7 -109 10 -122 16 -85 5 24 6 48 3 53 -3 5 -2 53 2 108 l7 100 38
0 c37 0 38 1 42 43 l4 42 1 -42 c1 -24 7 -43 12 -43 6 0 17 -18 26 -40 18 -45
30 -51 37 -17 3 12 3 -16 1 -63 -2 -55 0 -71 4 -45 7 35 12 17 44 -150 40
-202 58 -393 58 -612 0 -123 11 -228 44 -418 21 -121 20 -139 -9 -171 -14 -15
-25 -36 -25 -47 0 -32 53 -176 65 -174 7 1 12 -96 17 -293 3 -162 11 -322 17
-355 6 -33 17 -102 25 -154 8 -51 18 -96 21 -99 3 -3 4 298 2 668 -3 560 -6
707 -21 860 -10 102 -19 213 -20 247 0 35 -4 63 -7 63 -8 0 -43 384 -36 401 3
8 6 -6 7 -31 1 -35 3 -41 10 -25 5 11 7 63 4 115 -14 297 -26 489 -34 515 -5
17 -14 84 -21 150 -22 230 -25 250 -37 272 -6 12 -19 28 -27 37 -8 8 -19 32
-24 53 l-9 38 -2 -45 c-1 -25 -2 -53 -1 -62 3 -27 -8 -22 -49 20 -45 46 -145
96 -223 112 -65 13 -77 29 -77 99 0 78 54 73 -675 61 -358 -5 -871 -13 -1141
-16 l-490 -6 -25 123 c-13 67 -30 129 -37 136 -21 20 -59 16 -76 -9z m-346
-552 c0 -2 -9 -6 -20 -9 -11 -3 -18 -1 -14 4 5 9 34 13 34 5z m2837 -128 c-2
-13 -4 -5 -4 17 -1 22 1 32 4 23 2 -10 2 -28 0 -40z m212 -99 c1 -20 11 -49
26 -69 20 -27 25 -46 25 -91 0 -76 -10 -119 -26 -119 -10 0 -14 -13 -14 -40 0
-22 -4 -40 -10 -40 -5 0 -10 18 -10 40 0 22 5 40 10 40 6 0 10 18 10 40 0 29
-4 40 -15 40 -11 0 -15 12 -15 51 0 31 -6 56 -15 65 -8 9 -15 11 -15 5 0 -6
-16 -11 -35 -11 -24 0 -35 -5 -35 -15 0 -8 -7 -15 -15 -15 -9 0 -18 -7 -21
-15 -4 -8 -15 -15 -25 -15 -16 0 -19 7 -19 44 0 24 -2 56 -4 72 -2 16 -1 21 1
12 3 -11 14 -18 29 -18 21 0 24 4 24 40 l0 40 54 0 55 0 3 -42 c2 -23 8 -43
14 -45 8 -3 9 13 2 53 -10 64 0 111 12 59 4 -16 8 -46 9 -66z m-3072 -61 c-3
-8 -6 -5 -6 6 -1 11 2 17 5 13 3 -3 4 -12 1 -19z m3033 -98 c0 -29 -4 -40 -15
-40 -11 0 -15 11 -15 40 0 29 4 40 15 40 11 0 15 -11 15 -40z m-103 -72 c-3
-7 -5 -2 -5 12 0 14 2 19 5 13 2 -7 2 -19 0 -25z m20 -60 c-2 -13 -4 -3 -4 22
0 25 2 35 4 23 2 -13 2 -33 0 -45z m-50 0 c-2 -13 -4 -5 -4 17 -1 22 1 32 4
23 2 -10 2 -28 0 -40z m40 -80 c1 -30 1 -31 -7 -8 -11 33 -12 52 -2 46 4 -2 8
-19 9 -38z m-5730 -110 c-2 -13 -4 -5 -4 17 -1 22 1 32 4 23 2 -10 2 -28 0
-40z m20 -55 c-3 -10 -5 -4 -5 12 0 17 2 24 5 18 2 -7 2 -21 0 -30z m3760
-489 c-3 -3 -12 -4 -19 -1 -8 3 -5 6 6 6 11 1 17 -2 13 -5z m-429 -11 c-15 -2
-42 -2 -60 0 -18 2 -6 4 27 4 33 0 48 -2 33 -4z m59 1 c-3 -3 -12 -4 -19 -1
-8 3 -5 6 6 6 11 1 17 -2 13 -5z m86 -1 c-13 -2 -35 -2 -50 0 -16 2 -5 4 22 4
28 0 40 -2 28 -4z m164 1 c-3 -3 -12 -4 -19 -1 -8 3 -5 6 6 6 11 1 17 -2 13
-5z m-574 -41 c-7 -2 -19 -2 -25 0 -7 3 -2 5 12 5 14 0 19 -2 13 -5z m60 0
c-7 -2 -19 -2 -25 0 -7 3 -2 5 12 5 14 0 19 -2 13 -5z m50 0 c-7 -2 -19 -2
-25 0 -7 3 -2 5 12 5 14 0 19 -2 13 -5z m-2948 -23 c3 -5 2 -10 -4 -10 -5 0
-13 5 -16 10 -3 6 -2 10 4 10 5 0 13 -4 16 -10z m2412 4 c-3 -3 -12 -4 -19 -1
-8 3 -5 6 6 6 11 1 17 -2 13 -5z m61 -1 c-10 -2 -26 -2 -35 0 -10 3 -2 5 17 5
19 0 27 -2 18 -5z m-525 -10 c-7 -2 -19 -2 -25 0 -7 3 -2 5 12 5 14 0 19 -2
13 -5z m-123 -563 c0 -16 -2 -30 -4 -30 -2 0 -6 14 -8 30 -3 17 -1 30 4 30 4
0 8 -13 8 -30z"/>
<path d="M1265 7323 c-22 -4 -45 -45 -45 -79 0 -13 -4 -34 -10 -48 -7 -19 -6
-26 3 -26 8 0 7 -4 -3 -10 -22 -14 133 -13 164 1 32 15 48 55 38 94 l-9 30 -6
-42 c-8 -45 -28 -63 -69 -63 -30 0 -57 17 -42 28 6 4 14 16 18 27 5 13 10 15
13 8 8 -21 32 -15 38 10 4 12 1 35 -4 50 -11 27 -29 32 -86 20z m75 -18 c0 -8
-2 -15 -4 -15 -2 0 -6 7 -10 15 -3 8 -1 15 4 15 6 0 10 -7 10 -15z m-90 -130
c7 -9 8 -15 2 -15 -5 0 -12 7 -16 15 -3 8 -4 15 -2 15 2 0 9 -7 16 -15z"/>
<path d="M917 7226 c-4 -10 -5 -21 -2 -24 9 -9 17 6 13 25 -3 17 -4 17 -11 -1z"/>
<path d="M1431 7224 c0 -11 3 -14 6 -6 3 7 2 16 -1 19 -3 4 -6 -2 -5 -13z"/>
<path d="M880 7211 c0 -6 5 -13 10 -16 6 -3 10 1 10 9 0 9 -4 16 -10 16 -5 0
-10 -4 -10 -9z"/>
<path d="M443 7120 c0 -25 2 -35 4 -22 2 12 2 32 0 45 -2 12 -4 2 -4 -23z"/>
<path d="M418 6963 c-9 -21 -19 -75 -23 -120 -4 -46 -11 -83 -15 -83 -4 0 -11
-44 -14 -97 -4 -54 -11 -138 -17 -188 -12 -109 -17 -435 -6 -435 4 0 7 -21 7
-46 0 -36 -3 -44 -12 -36 -10 8 -13 -2 -13 -43 0 -29 3 -48 6 -43 10 16 21
-29 14 -52 -3 -11 -2 -20 4 -20 5 0 12 26 16 58 3 31 10 95 15 142 6 47 15
153 20 235 6 83 15 200 20 260 11 130 25 505 18 505 -2 0 -11 -17 -20 -37z"/>
<path d="M6501 6024 c0 -11 3 -14 6 -6 3 7 2 16 -1 19 -3 4 -6 -2 -5 -13z"/>
<path d="M6481 5974 c0 -11 3 -14 6 -6 3 7 2 16 -1 19 -3 4 -6 -2 -5 -13z"/>
<path d="M6486 5915 c-9 -26 -7 -32 5 -12 6 10 9 21 6 23 -2 3 -7 -2 -11 -11z"/>
<path d="M6312 5895 c0 -16 2 -22 5 -12 2 9 2 23 0 30 -3 6 -5 -1 -5 -18z"/>
<path d="M6682 5740 c0 -30 3 -64 8 -75 7 -17 9 -16 9 10 0 17 -4 50 -8 75
l-8 45 -1 -55z"/>
<path d="M6320 5704 c0 -14 3 -14 15 -4 8 7 15 14 15 16 0 2 -7 4 -15 4 -8 0
-15 -7 -15 -16z"/>
<path d="M6701 5544 c0 -11 3 -14 6 -6 3 7 2 16 -1 19 -3 4 -6 -2 -5 -13z"/>
<path d="M5671 5375 c-1 -22 -6 -58 -11 -80 -9 -34 -39 -225 -40 -247 0 -4 7
-14 16 -23 21 -20 23 -52 7 -85 -14 -28 -2 -40 21 -21 10 9 15 9 18 1 2 -8 32
-9 96 -4 l93 7 -3 81 -3 81 -40 -1 c-22 0 -51 -3 -64 -5 -22 -4 -25 2 -47 81
-13 47 -28 123 -33 170 -5 48 -9 68 -10 45z"/>
<path d="M5391 5280 c-12 -52 -27 -129 -33 -171 -10 -67 -10 -79 4 -93 9 -8
24 -34 35 -56 20 -43 17 -42 141 -45 l62 -1 0 83 0 83 -48 0 c-26 0 -53 -5
-60 -12 -13 -13 -12 -16 -41 92 -11 41 -24 107 -29 145 l-8 70 -23 -95z m99
-350 c0 -5 -4 -10 -10 -10 -5 0 -10 5 -10 10 0 6 5 10 10 10 6 0 10 -4 10 -10z"/>
<path d="M4141 5268 c-19 -88 -21 -166 -5 -172 8 -3 11 -12 7 -22 -4 -12 -3
-15 5 -10 8 5 12 -1 12 -15 0 -13 18 -44 41 -71 26 -31 39 -56 37 -71 -3 -20
1 -22 58 -24 l61 -3 -5 73 c-2 39 -8 76 -12 81 -12 12 -100 -3 -100 -17 0 -7
-5 -6 -14 3 -13 14 -40 112 -53 190 -3 19 -8 53 -12 75 l-8 40 -12 -57z m146
-320 c-2 -13 -4 -5 -4 17 -1 22 1 32 4 23 2 -10 2 -28 0 -40z"/>
<path d="M2240 5240 c0 -63 -38 -240 -51 -240 -5 0 -9 -18 -9 -40 0 -37 13
-55 22 -28 2 6 14 12 26 13 12 1 33 12 47 25 31 29 32 63 5 195 -25 124 -39
150 -40 75z"/>
<path d="M1467 5228 c-3 -29 -8 -62 -11 -73 -2 -11 -10 -49 -16 -83 -7 -35
-19 -66 -26 -69 -10 -4 -14 -24 -14 -65 0 -51 2 -59 16 -54 9 3 17 6 20 6 2 0
1 7 -3 15 -3 9 -2 15 3 14 22 -4 34 2 34 16 0 9 9 15 24 15 17 0 26 7 30 26 4
15 2 32 -3 37 -6 6 -11 27 -11 47 0 50 -21 203 -30 213 -4 4 -10 -16 -13 -45z"/>
<path d="M1990 5253 c0 -33 -51 -246 -60 -253 -12 -9 -21 -47 -14 -64 8 -20
40 -21 48 -1 3 8 12 15 21 15 8 0 15 8 15 17 0 15 2 14 14 -3 14 -18 15 -18
21 9 4 15 11 27 15 27 5 0 6 8 4 18 -2 9 -5 37 -7 62 -5 62 -39 200 -49 200
-4 0 -8 -12 -8 -27z"/>
<path d="M1229 5233 c-1 -65 -25 -195 -42 -228 -5 -10 -11 -47 -12 -81 l-3
-61 47 4 c66 7 73 11 19 12 -43 1 -48 3 -48 24 0 16 3 18 9 8 6 -10 20 -12 47
-7 30 5 35 4 24 -4 -13 -10 -13 -11 0 -7 20 5 25 67 11 137 -6 30 -13 69 -16
85 -15 94 -28 155 -31 155 -2 0 -4 -17 -5 -37z"/>
<path d="M5906 5163 c-6 -14 -5 -15 5 -6 7 7 10 15 7 18 -3 3 -9 -2 -12 -12z"/>
<path d="M3992 5062 c-9 -6 -10 -28 -6 -85 6 -62 9 -75 20 -66 8 6 26 8 44 4
l30 -7 0 75 c0 59 -3 76 -16 81 -22 8 -57 7 -72 -2z"/>
<path d="M2332 5008 c-6 -6 -12 -29 -12 -50 0 -36 2 -38 30 -38 17 0 30 5 30
11 0 5 5 7 11 4 5 -4 20 -4 32 -1 17 4 23 13 22 33 0 15 -4 33 -10 39 -14 15
-88 17 -103 2z m58 -28 c0 -16 -5 -30 -11 -30 -6 0 -8 9 -4 20 5 15 2 20 -12
20 -15 0 -16 2 -3 10 24 16 30 12 30 -20z"/>
<path d="M2824 4987 c-3 -8 -3 -31 -1 -53 4 -38 5 -39 43 -40 59 -1 64 3 64
57 l0 49 -50 0 c-33 0 -52 -5 -56 -13z"/>
<path d="M1042 4970 c0 -14 2 -19 5 -12 2 6 2 18 0 25 -3 6 -5 1 -5 -13z"/>
<path d="M1928 4893 c6 -2 18 -2 25 0 6 3 1 5 -13 5 -14 0 -19 -2 -12 -5z"/>
<path d="M969 4817 c-41 -35 -63 -87 -38 -87 6 0 8 7 5 15 -7 20 59 86 78 79
8 -3 17 -1 21 5 12 21 -40 11 -66 -12z"/>
<path d="M5570 4830 c0 -5 5 -10 10 -10 6 0 10 5 10 10 0 6 -4 10 -10 10 -5 0
-10 -4 -10 -10z"/>
<path d="M982 4798 c-15 -15 -16 -72 -2 -63 6 3 10 -1 10 -9 0 -9 7 -16 15
-16 8 0 15 9 15 20 0 13 5 18 15 14 19 -8 19 5 0 30 -8 10 -12 23 -9 27 8 14
-30 11 -44 -3z"/>
<path d="M1535 4800 c-3 -5 -1 -10 4 -10 6 0 11 5 11 10 0 6 -2 10 -4 10 -3 0
-8 -4 -11 -10z"/>
<path d="M1775 4800 c-3 -5 1 -10 10 -10 9 0 13 5 10 10 -3 6 -8 10 -10 10 -2
0 -7 -4 -10 -10z"/>
<path d="M1830 4800 c0 -5 4 -10 9 -10 6 0 13 5 16 10 3 6 -1 10 -9 10 -9 0
-16 -4 -16 -10z"/>
<path d="M1250 4790 c0 -5 5 -10 10 -10 6 0 10 5 10 10 0 6 -4 10 -10 10 -5 0
-10 -4 -10 -10z"/>
<path d="M1300 4790 c0 -7 24 -20 36 -20 13 0 1 19 -16 23 -11 3 -20 2 -20 -3z"/>
<path d="M1408 4793 c7 -3 16 -2 19 1 4 3 -2 6 -13 5 -11 0 -14 -3 -6 -6z"/>
<path d="M3986 4759 c-2 -8 -7 -43 -11 -79 -10 -102 -42 -227 -75 -289 -55
-103 -159 -193 -272 -236 -26 -10 -52 -23 -57 -29 -5 -7 -5 -35 1 -71 8 -53 6
-254 -4 -310 -3 -20 2 -20 297 -19 165 1 288 -1 273 -3 -70 -11 3 -43 97 -43
46 0 77 7 117 25 43 20 68 25 139 25 141 0 396 30 509 60 328 86 544 218 675
412 28 40 52 75 55 78 5 5 12 20 52 110 27 61 52 157 68 265 6 39 13 78 16 88
5 15 -2 17 -50 17 -31 0 -56 -4 -56 -9 0 -36 -36 -204 -61 -286 -68 -221 -255
-410 -493 -500 -99 -37 -270 -82 -361 -95 -94 -13 -410 -23 -350 -11 40 8 40
8 7 10 -18 0 -31 5 -28 10 4 5 1 11 -6 13 -6 2 35 12 93 22 249 41 377 78 522
151 173 88 270 166 346 279 54 81 113 215 131 296 6 30 18 67 25 82 17 33 12
38 -39 38 -54 -1 -70 -15 -85 -75 -7 -27 -23 -73 -37 -102 -13 -30 -24 -58
-24 -63 0 -14 -44 -104 -52 -108 -5 -2 -8 -9 -8 -15 0 -18 -68 -89 -124 -132
-45 -33 -255 -145 -273 -145 -4 0 3 8 16 18 163 123 232 215 290 389 25 73 55
212 48 219 -3 3 -27 6 -53 7 l-48 2 -15 -52 c-17 -56 -31 -79 -24 -38 4 18 1
25 -11 25 -10 0 -13 -6 -10 -15 4 -10 0 -15 -13 -15 -36 0 -56 -35 -57 -101
-1 -34 0 -57 2 -51 2 7 8 12 13 12 4 0 6 -7 2 -16 -5 -13 -2 -15 15 -9 12 3
22 5 22 2 0 -2 -16 -36 -35 -76 -56 -116 -143 -184 -309 -245 -46 -16 -80 -23
-99 -19 -21 4 -28 3 -23 -5 4 -7 2 -12 -3 -12 -31 0 -3 30 57 60 84 44 187
144 229 225 36 69 89 224 99 292 l7 46 -52 -6 c-63 -7 -71 -12 -71 -40 0 -12
-6 -30 -14 -39 -12 -16 -13 -16 -25 1 -27 37 -47 14 -59 -67 -7 -42 -9 -87 -6
-99 10 -37 -4 -86 -35 -120 -16 -18 -31 -33 -34 -33 -3 0 2 21 10 48 32 103
68 316 56 335 -3 4 -10 1 -16 -8 -10 -12 -40 -16 -147 -20 -186 -7 -195 -9
-211 -48 -17 -40 -17 -120 0 -141 7 -8 15 -47 17 -86 4 -59 0 -81 -22 -138
-50 -124 -58 -132 -166 -156 -28 -6 -38 9 -19 30 19 21 70 195 80 274 17 130
28 260 22 265 -2 3 -28 5 -58 5 -43 0 -53 -3 -54 -17 -9 -118 -30 -282 -46
-348 -18 -80 -84 -219 -119 -251 -14 -14 -42 -24 -76 -29 -29 -3 -76 -10 -104
-16 -52 -10 -214 -9 -214 2 0 3 18 14 40 24 22 10 40 21 40 24 0 3 12 12 28
18 23 11 81 64 134 123 18 19 70 107 86 143 29 67 82 350 68 364 -2 3 -23 7
-45 10 -29 4 -42 2 -45 -8z m624 -326 c-11 -17 -11 -17 -6 0 3 10 7 26 7 35 1
15 2 15 6 0 2 -10 -1 -25 -7 -35z m-13 -85 c-3 -7 -5 -2 -5 12 0 14 2 19 5 13
2 -7 2 -19 0 -25z m-30 -80 c-3 -8 -6 -5 -6 6 -1 11 2 17 5 13 3 -3 4 -12 1
-19z"/>
<path d="M5690 4739 c0 -5 5 -7 10 -4 6 3 10 8 10 11 0 2 -4 4 -10 4 -5 0 -10
-5 -10 -11z"/>
<path d="M4897 4726 c-4 -10 -7 -25 -6 -34 0 -11 4 -9 10 7 5 13 8 29 6 35 -2
5 -6 2 -10 -8z"/>
<path d="M2588 4719 c-13 -7 -18 -23 -18 -54 0 -46 -7 -54 -27 -34 -6 6 -16 8
-21 5 -15 -9 -25 -62 -16 -88 6 -21 7 -21 20 -3 8 10 14 27 14 37 0 10 5 18
11 18 9 0 10 -31 6 -112 -6 -106 -19 -171 -64 -313 -19 -60 -19 -60 -63 -67
-48 -7 -130 -10 -130 -5 0 2 10 23 21 48 28 57 55 167 74 299 18 123 33 223
37 242 2 10 -13 13 -57 13 l-60 0 -11 -85 c-7 -47 -17 -125 -23 -175 -18 -138
-49 -236 -103 -322 -27 -41 -29 -43 -78 -43 -27 0 -50 5 -50 10 0 6 5 10 10
10 6 0 10 19 9 43 0 38 -1 40 -10 17 -6 -14 -11 -29 -12 -35 -1 -5 -6 -13 -11
-17 -6 -4 -3 -55 8 -130 9 -68 18 -157 19 -198 2 -59 5 -74 16 -72 8 2 40 10
70 19 31 9 106 20 166 25 113 10 779 3 938 -10 49 -4 90 -5 92 -2 7 11 8 236
1 290 -8 70 -13 83 -31 77 -21 -9 -136 26 -186 55 -135 80 -196 212 -205 438
l-4 125 -42 3 c-22 2 -45 -1 -51 -7 -6 -6 -10 -36 -10 -68 0 -55 0 -56 -6 -14
-4 33 -11 46 -28 52 -12 4 -25 4 -28 -1 -9 -14 -16 -121 -9 -142 5 -18 7 -18
18 -2 12 16 13 15 19 -5 9 -34 27 -24 28 17 1 34 2 33 10 -15 17 -104 60 -244
90 -296 17 -28 51 -71 76 -95 25 -24 44 -44 42 -46 -2 -1 -100 0 -216 2 -154
3 -213 7 -213 16 0 6 9 43 19 81 27 98 59 312 65 428 l4 97 -41 0 c-23 0 -50
-5 -59 -11z m-212 -124 c-6 -60 -13 -91 -19 -83 -5 8 -7 -8 -4 -40 3 -40 1
-52 -8 -48 -13 5 -26 -35 -27 -86 -1 -16 -5 -28 -11 -28 -6 0 -7 23 -2 63 4
34 9 86 11 114 2 29 7 61 12 70 6 10 10 40 10 66 1 55 7 67 30 67 15 0 16 -9
8 -95z m261 -31 c2 -31 -4 -87 -13 -125 -8 -38 -13 -73 -9 -79 3 -5 -1 -13 -9
-16 -9 -3 -16 -15 -16 -25 0 -10 -5 -19 -10 -19 -6 0 -8 10 -5 23 3 12 10 60
16 107 19 152 21 163 33 176 6 7 11 13 11 14 0 0 1 -25 2 -56z m-70 -306 c-3
-8 -6 -5 -6 6 -1 11 2 17 5 13 3 -3 4 -12 1 -19z"/>
<path d="M1643 4703 c9 -2 23 -2 30 0 6 3 -1 5 -18 5 -16 0 -22 -2 -12 -5z"/>
<path d="M1934 4693 c2 -10 8 -42 11 -70 10 -77 37 -68 39 11 1 42 -18 76 -42
76 -8 0 -11 -7 -8 -17z"/>
<path d="M2156 4664 c-3 -26 -6 -65 -6 -88 l1 -41 20 24 c11 14 30 26 42 27
12 1 24 3 27 3 5 1 6 30 2 94 -2 24 -6 27 -41 27 -38 0 -38 0 -45 -46z"/>
<path d="M945 4690 c-3 -5 -1 -10 4 -10 6 0 11 5 11 10 0 6 -2 10 -4 10 -3 0
-8 -4 -11 -10z"/>
<path d="M1197 4693 c-39 -3 -48 -7 -45 -21 2 -9 13 -18 26 -20 24 -4 52 -48
52 -84 0 -16 3 -19 11 -11 14 14 25 144 13 141 -5 -1 -31 -3 -57 -5z m0 -19
c-3 -3 -12 -4 -19 -1 -8 3 -5 6 6 6 11 1 17 -2 13 -5z"/>
<path d="M1385 4678 c-8 -25 -25 -249 -19 -259 4 -6 11 -6 20 2 11 9 14 9 14
0 0 -7 5 -9 10 -6 17 11 11 25 -11 25 -12 0 -19 5 -16 13 2 6 11 11 21 9 20
-4 21 24 1 44 -17 18 -20 82 -4 104 7 11 8 0 4 -40 -5 -44 -4 -51 6 -36 6 10
12 48 12 84 1 53 3 60 10 39 12 -36 27 -34 27 3 0 28 -3 30 -35 30 -20 0 -38
-6 -40 -12z"/>
<path d="M965 4671 c-2 -5 2 -12 11 -15 26 -10 62 -7 67 7 5 14 -69 22 -78 8z"/>
<path d="M2017 4663 c-8 -13 -5 -126 3 -116 12 13 20 97 11 112 -5 7 -11 9
-14 4z"/>
<path d="M1155 4630 c-9 -15 -1 -23 21 -18 15 3 16 4 1 16 -11 9 -17 10 -22 2z"/>
<path d="M1151 4584 c0 -11 3 -14 6 -6 3 7 2 16 -1 19 -3 4 -6 -2 -5 -13z"/>
<path d="M1201 4584 c0 -11 3 -14 6 -6 3 7 2 16 -1 19 -3 4 -6 -2 -5 -13z"/>
<path d="M5600 4590 c0 -6 20 -10 45 -10 25 0 45 4 45 9 0 5 -20 9 -45 9 -25
1 -45 -3 -45 -8z"/>
<path d="M1441 4534 c0 -11 3 -14 6 -6 3 7 2 16 -1 19 -3 4 -6 -2 -5 -13z"/>
<path d="M2141 4490 c0 -36 2 -41 10 -27 7 12 7 27 0 45 -9 25 -9 24 -10 -18z"/>
<path d="M1350 4381 c0 -11 4 -22 9 -25 4 -3 6 6 3 19 -5 30 -12 33 -12 6z"/>
<path d="M1317 4200 c-5 -13 -22 -99 -30 -150 -1 -8 -4 -17 -7 -20 -3 -3 -11
-21 -17 -40 -6 -19 -20 -59 -31 -87 -11 -29 -17 -53 -13 -53 8 0 64 93 86 145
35 82 47 137 36 159 -5 12 -12 30 -14 41 -3 15 -5 17 -10 5z m4 -103 c-8 -8
-11 -4 -11 14 0 33 14 47 18 19 2 -12 -1 -27 -7 -33z"/>
<path d="M1086 4186 c10 -8 21 -12 24 -10 5 6 -21 24 -34 24 -6 0 -1 -6 10
-14z"/>
<path d="M1090 4140 c0 -5 5 -10 10 -10 6 0 10 5 10 10 0 6 -4 10 -10 10 -5 0
-10 -4 -10 -10z"/>
<path d="M1102 4100 c0 -14 2 -19 5 -12 2 6 2 18 0 25 -3 6 -5 1 -5 -13z"/>
<path d="M1092 4040 c0 -14 2 -19 5 -12 2 6 2 18 0 25 -3 6 -5 1 -5 -13z"/>
<path d="M1052 4015 c0 -16 2 -22 5 -12 2 9 2 23 0 30 -3 6 -5 -1 -5 -18z"/>
<path d="M1720 4018 c-25 -5 -63 -18 -85 -28 -23 -10 -59 -23 -81 -29 -136
-36 -417 -200 -498 -290 -12 -13 -31 -21 -50 -21 -21 0 -27 -3 -18 -9 11 -6
-6 -29 -65 -92 -75 -80 -163 -197 -163 -218 0 -5 -3 -11 -8 -13 -11 -4 -103
-171 -134 -243 -15 -33 -34 -87 -43 -120 -9 -33 -20 -68 -25 -77 -22 -39 -13
-45 70 -46 152 -2 309 -32 368 -70 28 -18 38 -9 48 46 3 17 10 32 14 32 5 0
11 8 13 18 4 15 5 15 6 -2 1 -13 6 -16 18 -12 9 4 20 1 25 -6 5 -9 8 -3 8 15
0 16 4 26 9 23 16 -10 39 5 51 34 15 36 82 90 112 90 25 1 68 32 68 49 0 6 7
11 15 11 8 0 15 5 15 11 0 7 12 10 29 7 17 -3 27 0 24 5 -3 5 -30 7 -60 4 -30
-3 -54 -4 -52 -3 15 13 245 71 361 91 79 13 169 29 201 35 171 32 611 36 893
9 90 -8 555 -39 595 -39 9 0 19 -8 21 -18 4 -16 25 -20 149 -30 174 -15 229
-15 229 -2 0 14 27 13 32 -1 3 -8 35 -11 96 -10 59 1 92 -2 92 -8 0 -6 -10
-12 -22 -12 -19 -1 -17 -3 7 -9 18 -5 22 -8 11 -9 -18 -1 -17 -3 4 -21 13 -11
27 -20 31 -20 13 0 39 -68 39 -99 0 -14 2 -41 6 -58 5 -28 11 -33 35 -33 20 0
27 -4 23 -13 -3 -9 12 -23 41 -38 25 -13 45 -27 45 -31 0 -5 7 -8 15 -8 9 0
15 -9 15 -25 0 -16 6 -25 16 -25 18 0 18 13 -4 -330 l-7 -105 -45 -3 c-25 -2
-83 2 -130 9 -47 7 -89 13 -95 13 -5 1 -11 16 -13 34 -4 37 -22 44 -22 7 0
-34 -20 -32 -21 3 -1 20 -2 22 -6 7 -3 -11 -10 -26 -16 -33 -5 -7 -7 -15 -3
-19 3 -3 6 -1 6 5 0 7 9 3 20 -8 11 -11 20 -25 20 -30 0 -6 16 -18 35 -27 19
-9 35 -20 35 -25 0 -4 13 -8 29 -8 16 0 31 -6 35 -15 3 -8 15 -15 26 -15 29 0
72 -30 66 -46 -3 -8 7 -20 24 -29 16 -8 34 -23 40 -32 9 -15 10 -14 4 7 -6 22
-5 23 10 11 9 -7 16 -19 16 -25 0 -13 40 -42 53 -38 5 1 7 -8 5 -20 -2 -19 1
-23 20 -21 12 2 22 -2 22 -7 0 -6 -4 -10 -8 -10 -11 0 -9 -91 2 -109 4 -7 5
-28 1 -48 -4 -24 -3 -33 5 -28 8 5 9 -13 4 -60 -5 -47 -3 -69 5 -74 13 -8 5
-41 -10 -41 -5 0 -9 9 -9 20 0 11 -7 20 -15 20 -19 0 -19 -5 2 -42 18 -29 17
-30 -9 -79 -16 -27 -28 -61 -28 -77 0 -42 -11 -72 -26 -72 -20 0 -17 -27 4
-39 15 -9 15 -10 -5 -11 -20 0 -23 -5 -23 -39 0 -39 -1 -40 -37 -43 l-38 -4
28 -12 c34 -15 34 -30 0 -43 -22 -8 -24 -12 -13 -19 12 -7 12 -12 3 -21 -9 -9
-15 -9 -26 0 -12 9 -16 8 -21 -4 -3 -8 -13 -15 -22 -15 -11 0 -15 -6 -11 -20
4 -16 0 -20 -19 -20 -13 0 -24 -4 -24 -9 0 -5 -8 -7 -19 -4 -11 3 -21 -2 -24
-11 -4 -9 -14 -16 -24 -16 -15 1 -13 5 10 25 15 13 27 27 27 31 0 4 -9 -1 -19
-10 -18 -16 -21 -16 -60 3 -48 25 -51 25 -51 7 0 -7 -11 -21 -25 -30 -14 -9
-25 -23 -25 -30 0 -8 -7 -16 -15 -19 -10 -5 -16 4 -20 31 -20 117 -23 115 -24
-19 -1 -132 0 -136 24 -159 13 -12 22 -27 19 -31 -6 -11 7 -82 14 -74 10 10
42 -28 42 -51 0 -24 13 -38 24 -27 3 3 1 12 -5 20 -9 10 -4 13 30 13 25 0 41
-5 41 -12 0 -6 10 -22 23 -36 18 -19 23 -39 27 -100 l5 -77 203 -3 c111 -1
217 1 235 6 29 7 32 12 35 50 2 33 -3 49 -23 76 -24 32 -25 34 -6 29 16 -4 21
-1 21 16 0 18 6 21 38 21 28 0 34 -3 22 -11 -12 -8 -10 -9 10 -7 20 2 25 8 23
30 -2 26 0 26 45 23 49 -5 351 -15 435 -15 37 0 47 -4 47 -17 0 -14 14 -15
131 -10 71 3 136 10 142 15 18 14 472 15 616 1 113 -11 125 -11 136 4 10 14
30 17 101 17 49 1 150 5 224 10 168 11 185 8 197 -34 7 -24 15 -32 36 -34 l27
-3 0 922 0 922 -42 -8 c-24 -4 -68 -6 -98 -5 -30 2 -74 3 -97 4 -22 1 -39 4
-36 9 6 9 -5 9 -45 -2 -17 -5 -32 -6 -32 -1 0 4 -9 10 -19 13 -12 3 -24 20
-32 46 -7 22 -16 41 -21 41 -4 0 -8 18 -8 40 0 22 -4 40 -9 40 -9 0 -51 39
-78 72 -28 34 43 155 132 224 84 65 121 78 225 79 52 0 110 -4 128 -8 l32 -9
0 50 c0 49 0 49 -37 56 -64 10 -176 6 -230 -8 -111 -30 -233 -121 -301 -226
-48 -73 -60 -95 -65 -122 l-4 -23 -2 23 c-1 28 25 88 51 116 20 22 23 36 9 36
-5 0 -13 9 -16 20 -4 11 -10 18 -14 15 -5 -2 -12 19 -15 47 -5 37 -4 54 6 60
10 7 10 9 -2 5 -11 -3 -16 -25 -21 -88 -3 -46 -6 -67 -7 -45 -1 21 -9 109 -17
195 -9 86 -19 190 -23 231 l-7 75 -871 5 -871 5 -20 -45 c-11 -25 -23 -53 -26
-62 -5 -15 -20 -18 -96 -18 -98 0 -101 -2 -93 -62 l4 -38 50 0 c65 0 61 -24
-5 -28 -44 -3 -46 -5 -49 -35 l-3 -32 -127 0 -128 0 0 65 0 65 -40 13 c-49 15
-121 15 -266 1 -89 -9 -113 -15 -117 -28 -3 -14 -22 -15 -173 -9 -93 4 -279
14 -414 23 -284 18 -529 19 -684 5 -208 -20 -704 -96 -748 -115 -10 -4 -18 -3
-18 3 0 5 15 13 33 17 27 7 29 9 10 12 -36 7 -16 33 26 34 23 1 28 3 14 6 -22
4 -28 21 -25 66 1 11 -5 17 -18 17 -20 0 -26 11 -13 23 3 4 12 2 19 -4 19 -16
65 38 58 68 -6 23 9 32 21 13 8 -12 35 -1 35 15 0 8 -8 11 -20 8 -16 -4 -19
-2 -14 11 7 19 16 20 31 5 12 -12 89 -3 99 12 5 9 -4 12 -41 11 -17 -1 -17 0
-2 4 9 3 17 10 17 15 0 6 5 7 10 4 22 -14 134 43 139 70 1 6 7 11 14 11 6 1
17 2 24 3 6 0 19 9 28 18 16 16 16 18 -1 31 -18 14 -18 14 3 9 31 -7 36 16 23
112 -5 45 -15 118 -20 164 -15 120 -8 113 -90 95z m-80 -418 c0 -5 -7 -10 -16
-10 -8 0 -21 -6 -28 -12 -7 -7 -33 -29 -57 -48 -57 -46 -161 -150 -224 -225
-27 -33 -52 -62 -56 -65 -3 -3 -8 -10 -10 -17 -2 -6 -16 -26 -31 -45 -54 -65
-101 -143 -114 -185 -7 -24 -18 -51 -24 -61 -16 -25 -2 42 16 76 8 15 14 33
14 40 0 20 84 193 125 258 41 64 144 170 208 212 59 40 159 91 180 91 9 1 17
-3 17 -9z m-45 -60 c-3 -5 -11 -10 -16 -10 -6 0 -7 5 -4 10 3 6 11 10 16 10 6
0 7 -4 4 -10z m-163 -182 c-15 -15 -26 -4 -18 18 5 13 9 15 18 6 9 -9 9 -15 0
-24z m-95 -204 c-3 -3 -12 -4 -19 -1 -8 3 -5 6 6 6 11 1 17 -2 13 -5z m-47
-14 c-20 -13 -33 -13 -25 0 3 6 14 10 23 10 15 0 15 -2 2 -10z m-10 -120 c0
-5 -5 -10 -11 -10 -5 0 -7 5 -4 10 3 6 8 10 11 10 2 0 4 -4 4 -10z m2995 -280
c3 -5 1 -10 -4 -10 -6 0 -11 5 -11 10 0 6 2 10 4 10 3 0 8 -4 11 -10z m1932
-52 c-3 -7 -5 -2 -5 12 0 14 2 19 5 13 2 -7 2 -19 0 -25z m30 -25 c-3 -10 -5
-4 -5 12 0 17 2 24 5 18 2 -7 2 -21 0 -30z m-1460 -143 c1 -11 -2 -20 -8 -20
-5 0 -9 9 -9 20 0 11 4 20 8 20 4 0 8 -9 9 -20z m103 -23 c0 -5 -6 -4 -14 2
-11 9 -15 9 -19 -1 -3 -7 -6 -1 -6 14 -1 27 0 27 19 11 11 -10 20 -21 20 -26z
m124 5 c2 -18 -1 -32 -5 -32 -5 0 -9 17 -9 37 0 43 8 40 14 -5z m376 -17 c0
-2 -7 -6 -16 -9 -8 -3 -12 -2 -9 4 3 5 1 18 -4 28 -6 11 -8 22 -4 26 5 4 33
-37 33 -49z m28 16 c1 -17 -1 -31 -6 -31 -4 0 -9 16 -10 36 -2 20 1 33 5 31 5
-3 10 -19 11 -36z m217 4 c0 -37 -9 -46 -19 -19 -5 12 8 54 17 54 1 0 2 -16 2
-35z m-1296 -112 c-1 -76 -3 -131 -5 -123 -7 35 -9 260 -2 260 4 0 7 -62 7
-137z m780 94 c-2 -20 -2 -20 -7 3 l-5 25 -7 -25 c-6 -24 -7 -24 -11 7 -5 28
-3 31 13 22 10 -5 17 -20 17 -32z m388 21 c-3 -8 -6 -5 -6 6 -1 11 2 17 5 13
3 -3 4 -12 1 -19z m-577 3 c0 -5 -6 -12 -12 -14 -10 -4 -9 -8 2 -16 13 -9 13
-11 -2 -11 -18 0 -25 30 -11 43 9 10 23 9 23 -2z m29 -18 c0 -25 -1 -25 -8 -8
-5 11 -7 23 -4 28 8 14 13 7 12 -20z m111 2 c0 -14 -2 -25 -4 -25 -2 0 -6 11
-8 25 -3 14 -1 25 3 25 5 0 9 -11 9 -25z m81 6 c-7 -5 -10 -14 -7 -20 4 -6 2
-11 -3 -11 -15 0 -14 37 2 43 18 6 24 -3 8 -12z m43 4 c-4 -8 -8 -15 -10 -15
-2 0 -4 7 -4 15 0 8 4 15 10 15 5 0 7 -7 4 -15z m47 -13 c5 -13 4 -22 -1 -22
-6 0 -10 8 -11 18 0 14 -2 14 -9 -3 -8 -18 -9 -17 -9 8 -1 33 18 32 30 -1z
m38 7 c-12 -8 -11 -11 1 -19 13 -8 12 -10 -2 -10 -11 0 -18 7 -18 18 0 23 10
33 22 25 6 -3 4 -9 -3 -14z m41 -5 c0 -14 -4 -23 -10 -19 -5 3 -10 15 -10 26
0 10 5 19 10 19 6 0 10 -12 10 -26z m599 -1 c0 -25 -1 -26 -9 -8 -12 27 -12
35 0 35 6 0 10 -12 9 -27z m68 -10 c-3 -10 -5 -4 -5 12 0 17 2 24 5 18 2 -7 2
-21 0 -30z m-536 13 c-9 -11 -9 -15 1 -19 8 -4 7 -6 -4 -6 -18 -1 -24 19 -11
32 13 13 25 7 14 -7z m86 -18 c-3 -7 -5 -2 -5 12 0 14 2 19 5 13 2 -7 2 -19 0
-25z m46 12 c3 -12 0 -20 -7 -20 -6 0 -12 9 -12 20 0 11 3 20 7 20 4 0 9 -9
12 -20z m104 -12 c-3 -7 -5 -2 -5 12 0 14 2 19 5 13 2 -7 2 -19 0 -25z m31 1
c-3 -8 -7 -3 -11 10 -4 17 -3 21 5 13 5 -5 8 -16 6 -23z m36 23 c-6 -4 -14
-14 -17 -22 -4 -10 -6 -8 -6 8 -1 15 5 22 17 22 10 0 13 -3 6 -8z m44 -23 c-3
-8 -7 -3 -11 10 -4 17 -3 21 5 13 5 -5 8 -16 6 -23z m52 27 c0 -3 -4 -8 -10
-11 -5 -3 -10 -1 -10 4 0 6 5 11 10 11 6 0 10 -2 10 -4z m40 0 c0 -3 -4 -8
-10 -11 -5 -3 -10 -1 -10 4 0 6 5 11 10 11 6 0 10 -2 10 -4z m63 -7 c-6 -6 -9
-19 -6 -28 5 -13 3 -13 -7 -4 -15 13 -7 43 12 43 9 0 9 -3 1 -11z m-1116 -21
c-3 -8 -6 -5 -6 6 -1 11 2 17 5 13 3 -3 4 -12 1 -19z m-47 2 c0 -5 -4 -10 -10
-10 -5 0 -10 5 -10 10 0 6 5 10 10 10 6 0 10 -4 10 -10z m717 -6 c-3 -3 -12
-4 -19 -1 -8 3 -5 6 6 6 11 1 17 -2 13 -5z m896 -1 c-7 -2 -21 -2 -30 0 -10 3
-4 5 12 5 17 0 24 -2 18 -5z m122 -12 c-6 -6 -25 -6 -45 -1 l-35 8 45 1 c27 1
40 -3 35 -8z m35 -1 c0 -5 -4 -10 -10 -10 -5 0 -10 5 -10 10 0 6 5 10 10 10 6
0 10 -4 10 -10z m51 -3 c-1 -12 -15 -9 -19 4 -3 6 1 10 8 8 6 -3 11 -8 11 -12z
m-1344 -13 c-3 -3 -12 -4 -19 -1 -8 3 -5 6 6 6 11 1 17 -2 13 -5z m170 0 c-3
-3 -12 -4 -19 -1 -8 3 -5 6 6 6 11 1 17 -2 13 -5z m50 0 c-3 -3 -12 -4 -19 -1
-8 3 -5 6 6 6 11 1 17 -2 13 -5z m1227 -10 c9 -3 16 -11 16 -16 0 -7 -4 -7
-12 0 -7 6 -26 12 -43 15 -29 4 -29 4 -3 6 14 0 33 -2 42 -5z m-1809 -24 c3
-5 1 -10 -4 -10 -6 0 -11 5 -11 10 0 6 2 10 4 10 3 0 8 -4 11 -10z m95 0 c0
-5 -4 -10 -10 -10 -5 0 -10 5 -10 10 0 6 5 10 10 10 6 0 10 -4 10 -10z m55 0
c3 -5 1 -10 -4 -10 -6 0 -11 5 -11 10 0 6 2 10 4 10 3 0 8 -4 11 -10z m385 0
c0 -5 -5 -10 -11 -10 -5 0 -7 5 -4 10 3 6 8 10 11 10 2 0 4 -4 4 -10z m185 0
c3 -5 1 -10 -4 -10 -6 0 -11 5 -11 10 0 6 2 10 4 10 3 0 8 -4 11 -10z m312
-542 c-3 -8 -6 -5 -6 6 -1 11 2 17 5 13 3 -3 4 -12 1 -19z m-1530 -25 c-3 -10
-5 -4 -5 12 0 17 2 24 5 18 2 -7 2 -21 0 -30z m1540 -65 c-3 -8 -6 -5 -6 6 -1
11 2 17 5 13 3 -3 4 -12 1 -19z m10 -161 c-2 -23 -3 -1 -3 48 0 50 1 68 3 42
2 -26 2 -67 0 -90z m234 100 c-10 -9 -11 -8 -5 6 3 10 9 15 12 12 3 -3 0 -11
-7 -18z m-64 -79 c-3 -7 -5 -2 -5 12 0 14 2 19 5 13 2 -7 2 -19 0 -25z m-150
-20 c-3 -8 -6 -5 -6 6 -1 11 2 17 5 13 3 -3 4 -12 1 -19z m163 -18 c0 -5 -4
-10 -10 -10 -5 0 -10 5 -10 10 0 6 5 10 10 10 6 0 10 -4 10 -10z m-143 -57
c-3 -10 -5 -2 -5 17 0 19 2 27 5 18 2 -10 2 -26 0 -35z m-30 -75 c-2 -18 -4
-4 -4 32 0 36 2 50 4 33 2 -18 2 -48 0 -65z m220 -4 c-3 -3 -12 -4 -19 -1 -8
3 -5 6 6 6 11 1 17 -2 13 -5z m-301 -91 c8 -94 10 -87 -17 -91 -17 -3 -21 0
-15 15 5 13 1 12 -12 -5 -18 -23 -23 -23 -148 -21 l-129 2 -3 -32 c-3 -26 -7
-32 -24 -29 -11 2 -29 18 -39 36 -9 19 -24 39 -33 45 -9 7 -18 37 -22 75 -6
56 -5 62 12 63 84 6 274 16 341 17 l81 2 8 -77z m103 -20 c-1 -39 -2 -43 -9
-23 -12 36 -12 70 0 70 6 0 10 -21 9 -47z m-2 -185 c-3 -8 -6 -5 -6 6 -1 11 2
17 5 13 3 -3 4 -12 1 -19z m-1894 -160 c6 -22 6 -22 -9 -4 -11 16 -17 17 -26
8 -17 -17 -33 -15 -18 3 18 22 47 18 53 -7z"/>
<path d="M5800 1336 c0 -2 9 -6 20 -9 11 -3 18 -1 14 4 -5 9 -34 13 -34 5z"/>
<path d="M1078 3948 c-1 -18 -2 -45 -2 -60 -1 -25 -16 -54 -16 -29 0 7 -4 9
-10 6 -5 -3 -10 -22 -10 -41 0 -20 -6 -42 -14 -50 -15 -14 -32 -91 -22 -101 3
-3 13 2 22 12 11 10 13 19 7 23 -11 8 -11 47 0 58 4 4 7 -6 8 -22 0 -24 3 -20
20 26 12 30 27 69 35 87 8 17 14 46 13 65 l-1 33 -14 -40 -13 -40 6 53 c3 28
3 52 -1 52 -3 0 -7 -15 -8 -32z"/>
<path d="M1044 3956 c-3 -8 -4 -29 -2 -48 3 -29 4 -27 8 15 5 48 3 58 -6 33z"/>
<path d="M4568 3893 c7 -3 16 -2 19 1 4 3 -2 6 -13 5 -11 0 -14 -3 -6 -6z"/>
<path d="M1440 3280 c0 -5 5 -10 10 -10 6 0 10 5 10 10 0 6 -4 10 -10 10 -5 0
-10 -4 -10 -10z"/>
<path d="M1445 3210 c-8 -13 5 -13 25 0 13 8 13 10 -2 10 -9 0 -20 -4 -23 -10z"/>
<path d="M1495 3115 c-23 -11 -25 -14 -10 -14 11 0 29 6 39 14 24 18 11 18
-29 0z"/>
<path d="M6183 2985 c-7 -8 -13 -19 -13 -25 0 -19 17 -10 28 15 13 27 4 33
-15 10z"/>
<path d="M100 2880 c0 -22 -4 -40 -10 -40 -5 0 -10 -23 -10 -51 0 -36 -6 -58
-20 -77 -15 -18 -17 -28 -9 -33 8 -5 8 -14 -3 -35 -44 -85 -43 -46 -46 -1146
l-2 -1048 132 -1 c116 -1 280 0 610 5 47 0 90 4 93 8 4 4 2 65 -4 135 -18 200
-17 324 3 339 13 9 14 13 4 17 -9 4 -6 12 11 26 13 12 18 21 12 21 -6 0 -14
18 -17 39 -4 22 -16 50 -27 62 -20 21 -21 21 -34 3 -9 -12 -13 -37 -11 -68 l3
-48 -85 6 c-47 3 -149 9 -228 12 -93 5 -139 10 -130 16 10 8 10 11 1 15 -17 6
-17 33 0 33 8 0 12 20 11 68 -1 95 -2 100 -21 105 -10 2 14 7 52 12 42 5 147
3 259 -4 104 -6 191 -9 194 -6 3 2 6 37 8 77 5 127 34 559 45 673 19 203 21
262 12 268 -7 4 -5 24 3 54 7 27 20 75 29 108 9 33 21 64 26 69 5 6 9 15 9 21
0 35 -216 77 -398 79 -99 1 -115 -2 -127 -18 -9 -12 -20 -16 -34 -11 -16 5
-22 1 -27 -19 -3 -13 -12 -27 -20 -30 -8 -3 -14 -15 -14 -26 0 -11 -4 -20 -10
-20 -5 0 -10 -7 -10 -15 0 -8 -4 -15 -9 -15 -5 0 -17 -20 -26 -45 -10 -25 -24
-50 -31 -56 -11 -9 -14 -5 -14 22 -1 32 -1 33 -15 15 -8 -11 -15 -37 -15 -58
0 -34 -3 -38 -25 -38 -24 0 -25 -2 -26 -67 -1 -50 -3 -61 -9 -43 -8 25 -8 25
-9 2 -1 -28 -21 -19 -21 9 0 10 7 19 15 19 8 0 15 6 15 13 0 8 -7 14 -15 14
-17 0 -21 -20 -35 -156 -9 -96 -15 -121 -23 -110 -2 2 4 120 14 262 22 314 37
642 31 674 -7 38 -22 26 -22 -17z m351 -392 c-6 -17 -12 -43 -12 -57 -1 -19
-3 -21 -6 -7 -3 10 1 46 9 80 8 38 14 52 16 38 2 -13 -1 -37 -7 -54z m-34 10
c-3 -8 -6 -5 -6 6 -1 11 2 17 5 13 3 -3 4 -12 1 -19z m-10 -75 c-3 -10 -5 -4
-5 12 0 17 2 24 5 18 2 -7 2 -21 0 -30z m20 -55 c-3 -8 -6 -5 -6 6 -1 11 2 17
5 13 3 -3 4 -12 1 -19z m-20 -120 c-3 -8 -6 -5 -6 6 -1 11 2 17 5 13 3 -3 4
-12 1 -19z m-330 -355 c-3 -10 -5 -4 -5 12 0 17 2 24 5 18 2 -7 2 -21 0 -30z
m-17 -254 c-6 -84 -14 -156 -17 -159 -5 -5 2 132 14 258 11 121 14 53 3 -99z
m780 -643 c0 -11 -19 -15 -25 -6 -3 5 1 10 9 10 9 0 16 -2 16 -4z"/>
<path d="M6290 2865 c-7 -9 -11 -18 -8 -20 3 -3 11 1 18 10 7 9 11 18 8 20 -3
3 -11 -1 -18 -10z"/>
<path d="M1041 2774 c0 -11 3 -14 6 -6 3 7 2 16 -1 19 -3 4 -6 -2 -5 -13z"/>
<path d="M450 2706 c-12 -33 -13 -106 -2 -106 15 0 35 111 23 123 -7 7 -13 2
-21 -17z"/>
<path d="M1025 2720 c-3 -5 -1 -10 4 -10 6 0 11 5 11 10 0 6 -2 10 -4 10 -3 0
-8 -4 -11 -10z"/>
<path d="M400 2616 c0 -8 4 -17 9 -20 5 -4 7 3 4 14 -6 23 -13 26 -13 6z"/>
<path d="M3640 2413 l0 -53 60 0 c33 0 63 0 68 0 4 0 7 24 7 53 l0 52 -67 0
-68 0 0 -52z"/>
<path d="M3400 2421 c-189 -74 -305 -257 -355 -563 -5 -33 -10 -38 -33 -39
-15 -1 -74 -2 -132 -4 -254 -7 -277 -20 -295 -160 -7 -49 -9 -55 -16 -35 l-7
25 -2 -25 -2 -25 -7 24 c-8 30 -31 40 -32 14 -1 -10 -6 10 -13 43 -26 134 -54
147 -306 147 -199 -1 -330 -14 -367 -38 -44 -29 -54 -59 -69 -202 -26 -256
-49 -548 -49 -620 0 -39 -3 -69 -7 -67 -5 3 -8 47 -9 97 0 69 -3 86 -10 68 -5
-13 -7 -32 -4 -42 5 -14 -1 -22 -22 -30 -16 -6 -34 -7 -43 -2 -8 4 -35 6 -60
2 l-45 -6 52 -1 c59 -2 72 -13 45 -39 -32 -31 -60 -43 -124 -53 -35 -6 -78
-13 -95 -16 -21 -4 -33 -2 -33 5 0 6 -4 11 -10 11 -5 0 -10 -8 -10 -18 0 -15
10 -17 93 -16 78 2 84 1 42 -6 -72 -12 -163 -12 -170 0 -3 6 -10 10 -16 10 -5
0 -9 -4 -9 -10 0 -5 7 -10 16 -10 13 0 14 -3 5 -14 -6 -7 -22 -11 -36 -8 -31
6 -33 -13 -3 -23 20 -6 17 -8 -22 -20 -41 -12 -42 -13 -15 -14 l30 -2 -24 -20
c-17 -14 -26 -17 -32 -8 -8 14 -29 -20 -29 -47 0 -10 -6 -25 -13 -33 -16 -19
-37 -89 -37 -124 0 -26 -15 -36 -58 -38 -24 -1 -23 -2 8 -10 30 -7 344 -13
558 -10 l62 1 0 74 c0 74 0 75 32 90 17 9 53 16 80 16 36 0 48 4 48 15 0 18
-31 20 -48 3 -6 -6 -15 -9 -19 -5 -11 11 11 28 41 31 14 1 29 6 33 9 3 4 111
7 240 7 207 0 233 -2 233 -16 0 -14 10 -15 78 -10 42 3 283 9 536 12 437 6
459 7 463 25 4 13 14 19 34 19 16 0 29 5 29 10 0 6 -6 10 -12 10 -8 0 -13 16
-14 45 -1 36 3 46 18 51 19 6 19 17 16 292 -2 220 0 292 10 310 7 12 8 22 3
22 -6 0 -13 -16 -17 -35 -7 -40 -20 -38 -29 5 -5 21 -13 30 -26 30 -10 0 -19
5 -19 10 0 20 -33 61 -40 50 -10 -17 -38 -1 -44 25 -3 13 -15 27 -26 30 -11 4
-21 16 -21 28 -1 13 -4 8 -8 -13 l-7 -35 -7 45 c-3 25 -9 65 -12 90 -6 46 -41
100 -65 100 -20 0 -5 122 24 205 14 39 26 77 26 85 0 8 9 26 20 40 11 14 20
33 20 43 0 26 96 114 139 128 20 6 48 18 63 25 26 13 26 15 12 41 -7 16 -14
36 -14 46 0 21 -3 21 -60 -2z m-1710 -1461 c0 -5 -2 -10 -4 -10 -3 0 -8 5 -11
10 -3 6 -1 10 4 10 6 0 11 -4 11 -10z m-37 -37 c-7 -2 -19 -2 -25 0 -7 3 -2 5
12 5 14 0 19 -2 13 -5z m-23 -22 c-14 -4 -25 -12 -25 -19 0 -7 -3 -12 -7 -12
-5 0 -13 0 -20 0 -6 0 -3 9 8 19 10 11 30 20 44 19 l25 0 -25 -7z"/>
<path d="M3568 2363 c6 -2 18 -2 25 0 6 3 1 5 -13 5 -14 0 -19 -2 -12 -5z"/>
<path d="M3792 2345 c-11 -12 -10 -15 3 -15 8 0 15 7 15 15 0 18 -2 18 -18 0z"/>
<path d="M3836 2345 c-3 -8 -1 -15 4 -15 6 0 10 7 10 15 0 8 -2 15 -4 15 -2 0
-6 -7 -10 -15z"/>
<path d="M3882 2335 c0 -16 2 -22 5 -12 2 9 2 23 0 30 -3 6 -5 -1 -5 -18z"/>
<path d="M915 2307 c-4 -10 -5 -21 -1 -24 10 -10 18 4 13 24 -4 17 -4 17 -12
0z"/>
<path d="M921 2244 c-1 -12 -4 -36 -7 -53 -4 -18 -2 -31 4 -31 14 0 23 56 12
82 -9 22 -9 23 -9 2z"/>
<path d="M3517 2213 c-30 -34 -40 -118 -35 -286 3 -87 9 -162 14 -165 5 -4 48
-6 95 -4 l85 3 14 164 c14 181 11 236 -18 274 -16 22 -28 26 -79 29 -47 2 -62
-1 -76 -15z"/>
<path d="M905 2050 c-3 -5 -1 -10 4 -10 6 0 11 5 11 10 0 6 -2 10 -4 10 -3 0
-8 -4 -11 -10z"/>
<path d="M4321 1794 c0 -11 3 -14 6 -6 3 7 2 16 -1 19 -3 4 -6 -2 -5 -13z"/>
<path d="M960 1790 c0 -5 5 -10 10 -10 6 0 10 5 10 10 0 6 -4 10 -10 10 -5 0
-10 -4 -10 -10z"/>
<path d="M872 1740 c0 -14 2 -19 5 -12 2 6 2 18 0 25 -3 6 -5 1 -5 -13z"/>
<path d="M862 1430 c0 -19 2 -27 5 -17 2 9 2 25 0 35 -3 9 -5 1 -5 -18z"/>
<path d="M850 1342 c0 -12 5 -22 11 -22 6 0 9 -7 6 -15 -4 -8 -1 -17 5 -21 8
-5 9 3 4 27 -8 41 -26 63 -26 31z"/>
<path d="M857 1245 c-29 -21 -31 -165 -3 -165 7 0 10 22 9 62 0 35 3 68 9 75
5 7 8 19 6 27 -2 12 -6 13 -21 1z"/>
<path d="M1702 1140 c0 -14 2 -19 5 -12 2 6 2 18 0 25 -3 6 -5 1 -5 -13z"/>
<path d="M3840 1065 c0 -8 5 -15 10 -15 6 0 10 7 10 15 0 8 -4 15 -10 15 -5 0
-10 -7 -10 -15z"/>
<path d="M1538 1053 c12 -2 32 -2 45 0 12 2 2 4 -23 4 -25 0 -35 -2 -22 -4z"/>
<path d="M865 960 c-3 -5 -1 -10 4 -10 6 0 11 5 11 10 0 6 -2 10 -4 10 -3 0
-8 -4 -11 -10z"/>
<path d="M1468 953 c6 -2 18 -2 25 0 6 3 1 5 -13 5 -14 0 -19 -2 -12 -5z"/>
<path d="M1540 950 c-21 -7 -19 -8 18 -9 23 -1 42 4 42 9 0 12 -24 12 -60 0z"/>
<path d="M1427 918 c-16 -10 81 -8 113 2 17 5 5 7 -38 6 -35 0 -69 -4 -75 -8z"/>
<path d="M2258 683 c12 -2 32 -2 45 0 12 2 2 4 -23 4 -25 0 -35 -2 -22 -4z"/>
<path d="M2108 673 c18 -2 45 -2 60 0 15 2 0 4 -33 4 -33 0 -45 -2 -27 -4z"/>
</g>
</svg>
